<?xml version="1.0" encoding="utf-8"?>
<!-- Generator: Adobe Illustrator 16.0.0, SVG Export Plug-In . SVG Version: 6.00 Build 0)  -->
<!DOCTYPE svg PUBLIC "-//W3C//DTD SVG 1.1//EN" "http://www.w3.org/Graphics/SVG/1.1/DTD/svg11.dtd">
<svg version="1.1" id="Layer_1" xmlns="http://www.w3.org/2000/svg" xmlns:xlink="http://www.w3.org/1999/xlink" x="0px" y="0px"
	 width="289.666px" height="215px" viewBox="0 0 289.666 215" enable-background="new 0 0 289.666 215" xml:space="preserve">
<linearGradient id="SVGID_1_" gradientUnits="userSpaceOnUse" x1="161.9668" y1="41.9766" x2="122.6336" y2="185.9759">
	<stop  offset="0" style="stop-color:#161708"/>
	<stop  offset="0.1774" style="stop-color:#4B4C39"/>
	<stop  offset="0.8061" style="stop-color:#4B4C39"/>
	<stop  offset="1" style="stop-color:#6A6B4F"/>
</linearGradient>
<path fill="url(#SVGID_1_)" d="M200.096,107.504c0,0-45.277,59.632-66.332,72.169c-13.084,7.79-30-1.925-30-17.32V52.656
	c0-15.396,17.063-25.13,30-17.32C154.742,48,200.096,107.504,200.096,107.504z"/>
<polygon opacity="0.7" fill="#EDF7F2" points="228.525,149.537 19.314,149.537 59.064,108.395 19.314,65.471 228.525,65.471 "/>
<g>
	<g id="XMLID_1_" opacity="0.3">
		
			<rect id="XMLID_24_" x="131.159" y="74.367" transform="matrix(-0.6515 -0.7586 0.7586 -0.6515 231.7012 256.3483)" width="87.143" height="1.177"/>
		<polygon opacity="0.9615" points="146.139,41.175 203.099,108.26 202.203,109.025 145.244,41.94 		"/>
		<polygon opacity="0.9231" points="145.486,40.833 202.632,108.891 201.736,109.654 144.591,41.597 		"/>
		<polygon opacity="0.8846" points="144.834,40.492 202.166,109.522 201.27,110.285 143.938,41.253 		"/>
		<polygon opacity="0.8462" points="144.182,40.149 201.701,110.154 200.803,110.915 143.284,40.911 		"/>
		<polygon opacity="0.8077" points="143.53,39.808 201.236,110.786 200.336,111.545 142.632,40.567 		"/>
		<polygon opacity="0.7692" points="142.878,39.466 200.77,111.417 199.869,112.175 141.979,40.224 		"/>
		<polygon opacity="0.7308" points="142.225,39.124 200.304,112.048 199.402,112.805 141.325,39.88 		"/>
		<polygon opacity="0.6923" points="141.573,38.782 199.838,112.68 198.936,113.435 140.672,39.537 		"/>
		<polygon opacity="0.6538" points="140.922,38.44 199.373,113.312 198.47,114.065 140.019,39.194 		"/>
		<polygon opacity="0.6154" points="140.27,38.099 198.907,113.943 198.003,114.695 139.365,38.851 		"/>
		<polygon opacity="0.5769" points="139.617,37.756 198.441,114.574 197.536,115.325 138.712,38.507 		"/>
		<polygon opacity="0.5385" points="138.965,37.415 197.977,115.206 197.069,115.955 138.059,38.164 		"/>
		<polygon opacity="0.5" points="138.313,37.073 197.51,115.838 196.603,116.586 137.406,37.821 		"/>
		<polygon opacity="0.4615" points="137.661,36.731 197.045,116.469 196.136,117.216 136.752,37.478 		"/>
		<polygon opacity="0.4231" points="137.009,36.39 196.579,117.101 195.669,117.846 136.1,37.134 		"/>
		<polygon opacity="0.3846" points="136.356,36.047 196.113,117.732 195.202,118.476 135.446,36.791 		"/>
		<polygon opacity="0.3462" points="135.705,35.705 195.648,118.363 194.735,119.105 134.793,36.448 		"/>
		<polygon opacity="0.3077" points="135.053,35.364 195.182,118.995 194.269,119.736 134.14,36.104 		"/>
		<polygon opacity="0.2692" points="134.4,35.022 194.717,119.626 193.803,120.366 133.486,35.761 		"/>
		<polygon opacity="0.2308" points="133.748,34.68 194.251,120.258 193.336,120.996 132.833,35.418 		"/>
		<polygon opacity="0.1923" points="133.097,34.338 193.785,120.89 192.868,121.626 132.181,35.074 		"/>
		<polygon opacity="0.1538" points="132.444,33.996 193.319,121.521 192.402,122.256 131.527,34.731 		"/>
		<polygon opacity="0.1154" points="131.792,33.654 192.854,122.152 191.936,122.886 130.874,34.388 		"/>
		<polygon opacity="0.0769" points="131.141,33.313 192.389,122.784 191.469,123.517 130.221,34.045 		"/>
		<polygon opacity="0.0385" points="130.488,32.971 191.923,123.416 191.002,124.146 129.567,33.701 		"/>
		<polygon id="XMLID_23_" opacity="0" points="129.836,32.629 191.457,124.047 190.535,124.776 128.914,33.358 		"/>
	</g>
	<linearGradient id="SVGID_2_" gradientUnits="userSpaceOnUse" x1="197.6328" y1="106.0664" x2="197.6328" y2="31.68">
		<stop  offset="0" style="stop-color:#828270"/>
		<stop  offset="0.8061" style="stop-color:#828270"/>
		<stop  offset="1" style="stop-color:#BBBD9F"/>
	</linearGradient>
	<path fill="url(#SVGID_2_)" d="M200.096,107.504h69.834c0,0-44.166-56.791-66.334-72.168c-3.238-2.247-7.044-2.8-10.559-2.694
		h-67.702c2.86,0.212,5.733,1.067,8.429,2.694C154.742,47.999,200.096,107.504,200.096,107.504z"/>
	<linearGradient id="SVGID_3_" gradientUnits="userSpaceOnUse" x1="197.5605" y1="106.9414" x2="197.5605" y2="182.8661">
		<stop  offset="0" style="stop-color:#6C6E57"/>
		<stop  offset="0.8061" style="stop-color:#6C6E57"/>
		<stop  offset="1" style="stop-color:#585943"/>
	</linearGradient>
	<path fill="url(#SVGID_3_)" d="M200.096,107.504c0,0-45.277,59.632-66.332,72.169c-2.753,1.639-5.674,2.494-8.572,2.694h67.846
		c3.515,0.105,7.309-0.464,10.559-2.694c22.168-15.21,66.334-72.169,66.334-72.169H200.096z"/>
</g>
<path fill="none" d="M200.518,107.504h69.834c0,0-44.167-56.791-66.334-72.168c-3.238-2.247-7.044-2.8-10.559-2.694h-67.703
	c2.861,0.212,5.734,1.067,8.429,2.694C155.164,47.999,200.518,107.504,200.518,107.504z"/>
<text transform="matrix(1 0 0 1 187.916 73.2349)" fill="#F3F2EA" font-family="'MyriadPro-Regular'" font-size="15">STEP</text>
<text transform="matrix(1 0 0 1 200.7734 100.3047)" fill="#F3F2EA" font-family="'MyriadPro-Regular'" font-size="37">04</text>
</svg>
