<?xml version="1.0" encoding="utf-8"?><svg xml:space="preserve" viewBox="0 0 100 100" y="0" x="0" xmlns="http://www.w3.org/2000/svg" id="圖層_1" version="1.1" width="200px" height="200px" xmlns:xlink="http://www.w3.org/1999/xlink" style="width:100%;height:100%;background-size:initial;background-repeat-y:initial;background-repeat-x:initial;background-position-y:initial;background-position-x:initial;background-origin:initial;background-color:initial;background-clip:initial;background-attachment:initial;animation-play-state:paused" ><g class="ldl-scale" style="transform-origin:50% 50%;transform:rotate(0deg) scale(0.8, 0.8);animation-play-state:paused" ><path stroke-linecap="round" stroke-width="3.08" stroke="#333" fill="#e0e0e0" d="M63.8 80.9h-51c-2.9 0-5.3-2.4-5.3-5.3v-51c0-2.9 2.4-5.3 5.3-5.3h51c2.9 0 5.3 2.4 5.3 5.3v51c0 3-2.4 5.3-5.3 5.3z" style="stroke:rgb(51, 51, 51);fill:rgb(255, 255, 255);animation-play-state:paused" ></path>
<g style="animation-play-state:paused" ><path d="M41.513 57.703L72.837 26.38l12.375 12.374-31.325 31.324z" stroke-linejoin="round" stroke-linecap="round" stroke-width="2.68597314" stroke="#333" fill="#eba523" style="stroke:rgb(51, 51, 51);fill:rgb(235, 165, 35);animation-play-state:paused" ></path>
<path stroke-linecap="round" stroke-width="2.686" stroke="#333" fill="#e0e0e0" d="M85.2 38.7l6.3-6.3c1.4-1.4 1.4-3.8 0-5.2l-7.1-7.1c-1.4-1.4-3.8-1.4-5.2 0l-6.3 6.3 12.3 12.3z" style="stroke:rgb(51, 51, 51);fill:rgb(255, 255, 255);animation-play-state:paused" ></path>
<path d="M39.8 66.1l5.7 5.7 8.3-1.7-6.1-6.2-6.2-6.2z" stroke-linejoin="round" stroke-linecap="round" stroke-width="2.686" stroke="#333" fill="#f5e6c8" style="stroke:rgb(51, 51, 51);fill:rgb(245, 230, 200);animation-play-state:paused" ></path>
<path d="M38.3 73.3l7.2-1.5-5.7-5.7z" stroke-linejoin="round" stroke-linecap="round" stroke-width="2.686" stroke="#333" fill="#333" style="stroke:rgb(51, 51, 51);fill:rgb(51, 51, 51);animation-play-state:paused" ></path>
<path d="M52.3 59.3l21.8-21.9" stroke-linejoin="round" stroke-linecap="round" stroke-width="2.686" stroke="#333" fill="none" style="stroke:rgb(51, 51, 51);animation-play-state:paused" ></path></g>
<metadata xmlns:d="https://loading.io/stock/" style="animation-play-state:paused" ><d:name style="animation-play-state:paused" >pencil</d:name>
<d:tags style="animation-play-state:paused" >draw,sketch,write,paint,artist,edit,compose,pencil,web application</d:tags>
<d:license style="animation-play-state:paused" >pro</d:license>
<d:slug style="animation-play-state:paused" >hfo16y</d:slug></metadata></g><!-- generated by https://loading.io/ --></svg>