<?xml version="1.0" encoding="utf-8"?><svg xml:space="preserve" viewBox="0 0 128 128" y="0px" x="0px" xmlns:xlink="http://www.w3.org/1999/xlink" xmlns="http://www.w3.org/2000/svg" id="圖層_1" version="1.1" width="200px" height="200px" style="width:100%;height:100%;background-size:initial;background-repeat-y:initial;background-repeat-x:initial;background-position-y:initial;background-position-x:initial;background-origin:initial;background-color:initial;background-clip:initial;background-attachment:initial;animation-play-state:paused" ><g class="ldl-scale" style="transform-origin:50% 50%;transform:rotate(0deg) scale(0.8, 0.8);animation-play-state:paused" ><path d="z" fill="none" style="animation-play-state:paused" ></path>
<path d="M46.53,57.14l2.25-0.37l0,0l4.43-4.72c-2.44-3.61-4.05-8.23-4.37-12.82l0,0c0,0,0,0,0,0 c-0.04-0.56-0.06-1.11-0.06-1.67c0,0,0,0,0,0c0-1.93,0.24-3.69,0.68-5.28c0.89-3.19,2.6-5.69,4.85-7.47 c0.38-0.3,0.77-0.57,1.17-0.83c0.81-0.51,1.67-0.94,2.58-1.28c1.82-0.69,3.82-1.04,5.92-1.04s4.1,0.35,5.92,1.04 c5.46,2.06,9.29,7.14,9.29,14.86c0,5.13-1.69,10.45-4.43,14.5l4.43,4.72l0,0l2.25,0.37c5.13,0.85,9.17,4.84,10.1,9.95l1.54,8.54 c5.64-6.65,9.06-15.26,9.06-24.67c0-21.07-17.08-38.16-38.16-38.16S25.84,29.88,25.84,50.96c0,9.41,3.41,18.01,9.06,24.67l1.54-8.54 C37.36,61.97,41.4,57.99,46.53,57.14z" fill="#A0C8D7" style="fill:rgb(160, 200, 215);animation-play-state:paused" ></path>
<path d="M53.22,52.05l-4.43,4.72l0,0l7.41-1.23C55.11,54.54,54.11,53.36,53.22,52.05z" fill="#FFFFFF" style="fill:rgb(255, 255, 255);animation-play-state:paused" ></path>
<path d="M58.89,57.5c-0.94-0.53-1.84-1.19-2.69-1.96l-7.41,1.23l9.76,11.33l0.89-2.26l-0.55-0.46V57.5z" fill="#FFFFFF" style="fill:rgb(255, 255, 255);animation-play-state:paused" ></path>
<path d="M58.89,57.5v7.87l0.55,0.46l2.78-7.11C61.06,58.5,59.95,58.09,58.89,57.5z" fill="#FFFFFF" style="fill:rgb(255, 255, 255);animation-play-state:paused" ></path>
<path d="M71.8,55.53l7.41,1.23l0,0l-4.43-4.72C73.89,53.36,72.89,54.54,71.8,55.53z" fill="#FFFFFF" style="fill:rgb(255, 255, 255);animation-play-state:paused" ></path>
<path d="M69.11,57.5c-1.06,0.59-2.17,1.01-3.33,1.23l2.78,7.11l0.55-0.46V57.5z" fill="#FFFFFF" style="fill:rgb(255, 255, 255);animation-play-state:paused" ></path>
<path d="M48.85,39.22c-0.04-0.56-0.06-1.11-0.06-1.67C48.79,38.11,48.81,38.67,48.85,39.22z" fill="#F4E6C8" style="fill:rgb(244, 230, 200);animation-play-state:paused" ></path>
<polygon points="48.85,39.22 48.85,39.22 48.85,39.22" fill="#323232" style="fill:rgb(50, 50, 50);animation-play-state:paused" ></polygon>
<path d="M55.49,23.98c0.81-0.51,1.67-0.94,2.58-1.28C57.17,23.04,56.3,23.47,55.49,23.98z" fill="#323232" style="fill:rgb(50, 50, 50);animation-play-state:paused" ></path>
<path d="M49.47,32.27c-0.44,1.59-0.68,3.36-0.68,5.28c0,0,0,0,0,0c0,0,0,0,0,0C48.79,35.62,49.03,33.86,49.47,32.27z" fill="#323232" style="fill:rgb(50, 50, 50);animation-play-state:paused" ></path>
<path d="M54.32,24.8c-2.25,1.77-3.96,4.28-4.85,7.47C50.36,29.08,52.07,26.57,54.32,24.8z" fill="#323232" style="fill:rgb(50, 50, 50);animation-play-state:paused" ></path>
<g style="animation-play-state:paused" ><path d="M81.47,56.83l-2.25-0.37l-9.76,11.33l-0.89-2.26l-2.34,1.98l2.77,20.98c9.63-1.26,18.13-6.1,24.11-13.16 l-1.54-8.54C90.64,61.67,86.6,57.69,81.47,56.83z" fill="#E0E0E0" style="fill:rgb(224, 224, 224);animation-play-state:paused" ></path>
<path d="M58.95,88.48l2.78-21.01l-2.29-1.94l-0.89,2.26l-9.76-11.33l-2.25,0.37c-5.13,0.85-9.17,4.84-10.1,9.95 l-1.54,8.54C40.87,82.37,49.35,87.21,58.95,88.48z" fill="#E0E0E0" style="fill:rgb(224, 224, 224);animation-play-state:paused" ></path>
<path d="M66.14,66.88l0.08,0.62l2.34-1.98l-2.78-7.11c-0.59,0.11-1.18,0.17-1.78,0.17s-1.2-0.06-1.78-0.17 l-2.78,7.11l2.29,1.94l0.08-0.58H66.14z" fill="#C33736" style="fill:rgb(195, 55, 54);animation-play-state:paused" ></path>
<path d="M64,69.38l-2.27-1.92l-2.78,21.01c1.65,0.22,3.33,0.34,5.05,0.34c1.69,0,3.36-0.12,4.99-0.34L66.22,67.5 L64,69.38z" fill="#C33736" style="fill:rgb(195, 55, 54);animation-play-state:paused" ></path>
<polygon points="66.22,67.5 66.14,66.88 61.81,66.88 61.73,67.46 64,69.38" fill="#C33736" style="fill:rgb(195, 55, 54);animation-play-state:paused" ></polygon>
<path d="M53.22,51.75l-4.43,4.72l0,0l7.41-1.23C55.11,54.24,54.11,53.06,53.22,51.75z" fill="#FFFFFF" style="fill:rgb(255, 255, 255);animation-play-state:paused" ></path>
<path d="M58.89,57.19c-0.94-0.53-1.84-1.19-2.69-1.96l-7.41,1.23l9.76,11.33l0.89-2.26l-0.55-0.46V57.19z" fill="#FFFFFF" style="fill:rgb(255, 255, 255);animation-play-state:paused" ></path>
<path d="M58.89,57.19v7.87l0.55,0.46l2.78-7.11C61.06,58.2,59.95,57.79,58.89,57.19z" fill="#FFFFFF" style="fill:rgb(255, 255, 255);animation-play-state:paused" ></path>
<path d="M71.8,55.23l7.41,1.23l0,0l-4.43-4.72C73.89,53.06,72.89,54.24,71.8,55.23z" fill="#FFFFFF" style="fill:rgb(255, 255, 255);animation-play-state:paused" ></path>
<path d="M69.11,57.19v7.87l-0.55,0.46l0.89,2.26l9.76-11.33l-7.41-1.23C70.95,56.01,70.05,56.67,69.11,57.19z" fill="#FFFFFF" style="fill:rgb(255, 255, 255);animation-play-state:paused" ></path>
<path d="M69.11,57.19c-1.06,0.59-2.17,1.01-3.33,1.23l2.78,7.11l0.55-0.46V57.19z" fill="#FFFFFF" style="fill:rgb(255, 255, 255);animation-play-state:paused" ></path>
<path d="M57.32,55.05L64,53.94l6.68,1.11l4.1-3.3l0,0c2.74-4.05,4.43-9.37,4.43-14.5c0-7.71-3.83-12.8-9.29-14.86 c5.46,2.06,9.29,7.14,9.29,14.86c0,0.35-0.01,0.7-0.02,1.05c-1.09,0.42-2.24,0.66-3.44,0.66c-4.1,0-7.71-2.69-9.81-6.75 c-4.26,3.88-10.31,6.42-17.09,6.72c0.32,4.59,1.93,9.21,4.37,12.82l0,0L57.32,55.05z" fill="#F4E6C8" style="fill:rgb(244, 230, 200);animation-play-state:paused" ></path>
<path d="M48.85,38.92c-0.04-0.56-0.06-1.11-0.06-1.67C48.79,37.81,48.81,38.37,48.85,38.92z" fill="#F4E6C8" style="fill:rgb(244, 230, 200);animation-play-state:paused" ></path>
<polygon points="60.97,56.66 67.03,56.66 70.36,55.3 70.68,55.05 64,53.94 57.32,55.05 57.64,55.3" fill="#F4E6C8" style="fill:rgb(244, 230, 200);animation-play-state:paused" ></polygon>
<path d="M67.03,56.66h-6.06l1.67,0.68l-0.42,1.08c0.59,0.11,1.18,0.17,1.78,0.17s1.2-0.06,1.78-0.17l-0.42-1.08 L67.03,56.66z" fill="#F4E6C8" style="fill:rgb(244, 230, 200);animation-play-state:paused" ></path>
<path d="M56.2,55.23l1.12-0.19l-4.1-3.3l0,0C54.11,53.06,55.11,54.24,56.2,55.23z" fill="#F4E6C8" style="fill:rgb(244, 230, 200);animation-play-state:paused" ></path>
<path d="M60.97,56.66l-3.33-1.36l-0.32-0.26l-1.12,0.19c0.85,0.77,1.75,1.44,2.69,1.96v-0.53H60.97z" fill="#F4E6C8" style="fill:rgb(244, 230, 200);animation-play-state:paused" ></path>
<path d="M60.97,56.66h-2.08v0.53c1.06,0.59,2.17,1.01,3.33,1.23l0.42-1.08L60.97,56.66z" fill="#F4E6C8" style="fill:rgb(244, 230, 200);animation-play-state:paused" ></path>
<path d="M70.68,55.05l1.12,0.19c1.09-0.99,2.09-2.17,2.98-3.49l0,0L70.68,55.05z" fill="#F4E6C8" style="fill:rgb(244, 230, 200);animation-play-state:paused" ></path>
<path d="M67.03,56.66h2.08v0.53c0.94-0.53,1.84-1.19,2.69-1.96l-1.12-0.19l-0.32,0.26L67.03,56.66z" fill="#F4E6C8" style="fill:rgb(244, 230, 200);animation-play-state:paused" ></path>
<path d="M69.11,56.66h-2.08l-1.67,0.68l0.42,1.08c1.15-0.22,2.27-0.63,3.33-1.23V56.66z" fill="#F4E6C8" style="fill:rgb(244, 230, 200);animation-play-state:paused" ></path>
<polygon points="48.85,38.92 48.85,38.92 48.85,38.92" fill="#323232" style="fill:rgb(50, 50, 50);animation-play-state:paused" ></polygon>
<path d="M55.49,23.67c0.81-0.51,1.67-0.94,2.58-1.28C57.17,22.74,56.3,23.16,55.49,23.67z" fill="#323232" style="fill:rgb(50, 50, 50);animation-play-state:paused" ></path>
<path d="M49.47,31.97c-0.44,1.59-0.68,3.36-0.68,5.28c0,0,0,0,0,0c0,0,0,0,0,0C48.79,35.32,49.03,33.56,49.47,31.97 z" fill="#323232" style="fill:rgb(50, 50, 50);animation-play-state:paused" ></path>
<path d="M54.32,24.5c-2.25,1.77-3.96,4.28-4.85,7.47C50.36,28.78,52.07,26.27,54.32,24.5z" fill="#323232" style="fill:rgb(50, 50, 50);animation-play-state:paused" ></path>
<path d="M75.75,38.95c1.2,0,2.35-0.23,3.44-0.66c0.02-0.35,0.02-0.7,0.02-1.05c0-7.71-3.83-12.8-9.29-14.86 c-1.82-0.69-3.82-1.04-5.92-1.04s-4.1,0.35-5.92,1.04c-0.91,0.34-1.77,0.77-2.58,1.28c-0.4,0.25-0.8,0.53-1.17,0.83 c-2.25,1.77-3.96,4.28-4.85,7.47c-0.44,1.59-0.68,3.36-0.68,5.28c0,0,0,0,0,0c0,0.55,0.02,1.11,0.06,1.67c0,0,0,0,0,0 c6.78-0.3,12.83-2.84,17.09-6.72C68.04,36.27,71.65,38.95,75.75,38.95z" fill="#323232" style="fill:rgb(50, 50, 50);animation-play-state:paused" ></path></g>
<path d="M46.38,97.78h35.23" stroke-miterlimit="12.8" stroke-linejoin="round" stroke-width="3.84" stroke="#323232" fill="none" style="stroke:rgb(50, 50, 50);animation-play-state:paused" ></path>
<path d="M46.38,106.74h35.23" stroke-miterlimit="12.8" stroke-linejoin="round" stroke-width="3.84" stroke="#323232" fill="none" style="stroke:rgb(50, 50, 50);animation-play-state:paused" ></path>
<path d="M46.38,115.7h16.03" stroke-miterlimit="12.8" stroke-linejoin="round" stroke-width="3.84" stroke="#323232" fill="none" style="stroke:rgb(50, 50, 50);animation-play-state:paused" ></path>
<path d="z" fill="none" style="animation-play-state:paused" ></path>
<metadata xmlns:d="https://loading.io/stock/" style="animation-play-state:paused" ><d:name style="animation-play-state:paused" >profile</d:name>


<d:tags style="animation-play-state:paused" >profile,information,personal,privacy,about me,portfolio,introduction,brief</d:tags>


<d:license style="animation-play-state:paused" >by</d:license>


<d:slug style="animation-play-state:paused" >ti8p7i</d:slug></metadata></g><!-- generated by https://loading.io/ --></svg>